<svg id="SvgjsSvg1011" width="288" height="288" xmlns="http://www.w3.org/2000/svg" version="1.1" xmlns:xlink="http://www.w3.org/1999/xlink" xmlns:svgjs="http://svgjs.com/svgjs"><defs id="SvgjsDefs1012"></defs><g id="SvgjsG1013"><svg xmlns="http://www.w3.org/2000/svg" viewBox="0 0 20 20" width="288" height="288"><path fill="#36494f" d="M19.88 13.175l-2.349-2.741c-0.263-0.307-0.638-0.488-1.029-0.496s-0.773 0.157-1.049 0.452l-2.033 2.178c-0.24-0.363-0.548-0.68-0.911-0.935-0.59-0.414-1.285-0.633-2.008-0.633-0.77 0-1.5 0.245-2.112 0.709-0.372 0.282-0.685 0.639-0.919 1.042l-1.943-2.307c-0.262-0.312-0.636-0.493-1.026-0.499s-0.768 0.166-1.039 0.471l-3.336 3.753c-0.183 0.206-0.165 0.522 0.042 0.706s0.522 0.165 0.706-0.042l3.336-3.753c0.079-0.089 0.176-0.137 0.278-0.135 0.1 0.001 0.198 0.052 0.274 0.143l7.356 8.735c0.099 0.117 0.24 0.178 0.383 0.178 0.114 0 0.228-0.039 0.322-0.118 0.211-0.178 0.238-0.493 0.060-0.704l-2.023-2.402 2.756-2.952c0.039-0.031 0.073-0.067 0.1-0.108l2.468-2.644c0.083-0.089 0.189-0.137 0.297-0.135s0.212 0.054 0.291 0.147l2.349 2.741c0.18 0.21 0.495 0.234 0.705 0.054s0.234-0.495 0.054-0.705zM8.173 13.585c0.372-0.943 1.3-1.585 2.327-1.585 0.927 0 1.78 0.523 2.209 1.329l-2.498 2.676-2.038-2.42z" class="colorB4CB4A svgShape"></path><path fill="#36494f" d="M10.5 10c-.276 0-.5-.224-.5-.5v-1c0-.276.224-.5.5-.5s.5.224.5.5v1c0 .276-.224.5-.5.5zM13 11c-.128 0-.256-.049-.354-.146-.195-.195-.195-.512 0-.707l1-1c.195-.195.512-.195.707 0s.195.512 0 .707l-1 1c-.098.098-.226.146-.354.146zM8 11c-.128 0-.256-.049-.354-.146l-1-1c-.195-.195-.195-.512 0-.707s.512-.195.707 0l1 1c.195.195.195.512 0 .707-.098.098-.226.147-.354.147zM14.493 2.004c-.064 0-.129-.013-.191-.039-.187-.08-.306-.259-.302-.462-.002-.048-.019-.184-.082-.298-.056-.101-.149-.205-.418-.205-.276 0-.5-.224-.5-.5s.224-.5.5-.5c.624 0 1.022.288 1.25.647.443-.31 1.078-.647 1.75-.647.276 0 .5.224.5.5s-.224.5-.5.5c-.645 0-1.408.617-1.647.854-.097.097-.228.15-.36.15zM9 2c-.057 0-.113.003-.169.007-.411-1.168-1.525-2.007-2.831-2.007-.967 0-1.871.474-2.43 1.241-.331-.157-.696-.241-1.07-.241-1.378 0-2.5 1.122-2.5 2.5s1.122 2.5 2.5 2.5h6.5c1.103 0 2-.897 2-2s-.897-2-2-2zM9 5h-6.5c-.827 0-1.5-.673-1.5-1.5s.673-1.5 1.5-1.5c.43 0 .84.185 1.125.508.183.207.499.227.706.044s.227-.499.044-.706c-.002-.002-.003-.003-.005-.005.372-.52.979-.841 1.63-.841 1.103 0 2 .897 2 2 0 .276.224.5.5.5s.5-.224.5-.5c.551 0 1 .449 1 1s-.449 1-1 1zM17.493 4.004c-.064 0-.129-.013-.191-.039-.187-.08-.306-.259-.302-.462-.002-.048-.019-.184-.082-.298-.056-.101-.149-.205-.418-.205-.276 0-.5-.224-.5-.5s.224-.5.5-.5c.624 0 1.022.288 1.25.647.443-.31 1.078-.647 1.75-.647.276 0 .5.224.5.5s-.224.5-.5.5c-.645 0-1.408.617-1.647.854-.097.097-.228.15-.36.15zM14.493 7.004c-.064 0-.129-.013-.191-.039-.187-.08-.306-.259-.302-.462-.002-.048-.019-.184-.082-.298-.056-.101-.149-.205-.418-.205-.276 0-.5-.224-.5-.5s.224-.5.5-.5c.624 0 1.022.288 1.25.647.443-.31 1.078-.647 1.75-.647.276 0 .5.224.5.5s-.224.5-.5.5c-.645 0-1.408.617-1.647.854-.097.097-.228.15-.36.15z" class="colorB4CB4A svgShape"></path></svg></g></svg>