<?xml version="1.0" encoding="utf-8"?>
<!-- Generator: Adobe Illustrator 16.0.3, SVG Export Plug-In . SVG Version: 6.00 Build 0)  -->
<!DOCTYPE svg PUBLIC "-//W3C//DTD SVG 1.1//EN" "http://www.w3.org/Graphics/SVG/1.1/DTD/svg11.dtd">
<svg version="1.1" id="bug_xA0_Image_1_" xmlns="http://www.w3.org/2000/svg" xmlns:xlink="http://www.w3.org/1999/xlink" x="0px"
	 y="0px" width="1000.4px" height="178.9px" viewBox="0 0 1000.4 178.9" enable-background="new 0 0 1000.4 178.9"
	 xml:space="preserve">
<g>
	<g>
		<path fill="#6BC8C8" d="M823.4,60.3c1.4,7-3,13.8-10,15.2c-7,1.4-13.7-3-15.2-10c-1.4-6.9,3-13.7,10-15.2
			C815.2,48.9,822,53.4,823.4,60.3z"/>
		<path fill="#6BC8C8" d="M846.3,16.5c1.4,7-3,13.8-10,15.2c-6.9,1.4-13.7-3-15.2-10c-1.4-7,3-13.7,10-15.2
			C838.1,5.1,844.9,9.6,846.3,16.5z"/>
		<path fill="#6BC8C8" d="M977.8,148.4c-9.1,8.3-20.4,14.3-33.3,16.9c-38.3,7.9-75.7-16.7-83.7-55c-2.6-12.6-1.7-25.2,2.1-36.6
			c0.1-0.4,0.9-0.9,1.7-0.4l113.2,73.3C978.8,147.2,978.2,148,977.8,148.4z"/>
		<path fill="#6BC8C8" d="M870.9,56.9c6.8-10.2,16.4-18.7,28.3-24.4c35.3-16.8,77.5-1.8,94.3,33.5c5.5,11.7,7.6,24.1,6.6,36.1
			c0,0.4-0.5,1-1.7,0.7L871.3,58.7C870.6,58.3,870.6,57.4,870.9,56.9z"/>
	</g>
	<path fill="#DF5845" stroke="#DF5845" stroke-width="0.75" stroke-linecap="round" stroke-linejoin="round" d="M254.1,54.1
		c-4.5-12.1-16.2-24.4-24.7-25.3c-11.7,1.6-69,48.4-85.9,50.4C75,87.4,61.3,64.4,61,63.1C58.1,52,59.8,37.6,50.2,30.9
		c-13-8.5-23.1-2.9-27.4,4.8c-35.5,3.5-23.3-1.1-1.4,17.5c1.5,9.4-0.6,23.1-0.8,23.9c-5.4,24.8-11.7,37.4-4,54.1
		c19.6,42.6,119.5,49,135.8,4.4c11.5-31.7,21.2-40.3,22.3-40.9C205.4,78.5,256.6,61,254.1,54.1z M88.4,111.7
		c-4.6,5.1-17.5,17.6-19.8,23.1c-1.3-2.2-16.2-8.8-20.3-10.5c-3.8-1.7-12-7.1-14-9.7c-2-2.5-2.5-5.1-2.3-8.2
		c0.3-3.5,2.6-7.3,11.1-9.7c5-1.4,11.6-0.1,14.1,1.6c1.8,1.1,4.2,3.7,4.8,5c3.2-4.7,8.4-9.1,16.1-10.8
		C94.8,88.9,97.8,101.1,88.4,111.7z"/>
	<g>
		<path fill="#BCD15E" d="M414.1,94.5c0,6.8-5.5,12.3-12.3,12.3s-12.3-5.5-12.3-12.3c0-6.8,5.5-12.3,12.3-12.3
			S414.1,87.7,414.1,94.5z"/>
		<path fill="#BCD15E" d="M447.3,102.3c0,0,28.5,12.1,44.6,23.2c16.1,11,40,43.1,40,43.1s3.8,6.2-1.3,9.3
			c-5.5,3.4-10.1-2.4-10.1-2.4s-15.6-21.7-32.3-36.8c-16.6-15.1-45.2-25.3-45.2-25.3s-8.6-2-5.3-8.9
			C440.3,98.8,447.3,102.3,447.3,102.3z"/>
		<path fill="#BCD15E" d="M468.1,97.3c0,0-10.8-12.9-16.8-30c-3.9-11.2-10.9-34.7-3.3-52.6c3.4-8.1,13.3-15.7,24.5-14.7
			c11.3,1,20.2,10.5,21.6,15.7c1.9,7.3,0,14.3,0,14.3s6.9-1.2,10.9-1.2c8,0,18.9,7.1,20.2,18.2c1.9,17-0.6,30.3-4.9,40.8
			c-5.7,13.5-15.3,30-15.3,30s-4.5-4.3-14.4-10.6C483.6,102.7,468.1,97.3,468.1,97.3z"/>
		<path fill="#BCD15E" d="M518.1,128.9c0,0,8.5,8,14.8,15.8c7.5,9.2,11,15.3,11,15.3s52.8,5.9,64.5,4.9c11.8-1,17.6-5.2,21-11
			c3.4-5.8,3.6-13.8,0-19c-3.6-5.2-11.4-11.3-21-11.3c-12.5,0-35.5,1.1-50,2.2C543.9,126.9,518.1,128.9,518.1,128.9z"/>
	</g>
</g>
</svg>
