<?xml version="1.0"?>
<svg width="20" height="20" xmlns="http://www.w3.org/2000/svg" xmlns:svg="http://www.w3.org/2000/svg" version="1.1">
 <g class="layer">
  <title>Layer 1</title>
  <path d="m17.73,12.65c-0.18,-0.31 -0.47,-0.52 -0.83,-0.6c-0.37,-0.09 -0.76,-0.02 -1.11,0.09c0.13,-0.74 0.19,-1.3 0.2,-1.51c0.01,-0.05 0.01,-0.09 0.01,-0.13c0,-0.01 0,-0.01 0,-0.02c0,0 0,0 0,-0.01c-0.02,-0.7 -0.67,-1.28 -1.94,-1.71c-1.05,-0.37 -2.52,-0.62 -4.12,-0.72c-0.28,-0.01 -0.51,0.2 -0.53,0.47s0.2,0.51 0.47,0.53c1.51,0.09 2.88,0.32 3.86,0.66c1,0.35 1.25,0.69 1.26,0.79c0,0.01 0,0.02 0,0.03c-0.03,0.14 -0.38,0.54 -1.69,0.91c-1.28,0.37 -2.99,0.57 -4.81,0.57s-3.53,-0.2 -4.81,-0.57c-1.31,-0.37 -1.66,-0.77 -1.69,-0.91c0,-0.01 0,-0.02 0,-0.03c0.02,-0.23 0.88,-0.94 3.57,-1.3c0.27,-0.04 0.47,-0.29 0.43,-0.57s-0.29,-0.46 -0.56,-0.42c-1.23,0.16 -2.28,0.43 -3.03,0.76c-0.92,0.41 -1.4,0.92 -1.41,1.51c0,0.01 0,0.01 0,0.01c0,0 0,0.01 0,0.02c0,0.04 0,0.08 0.01,0.12c0.03,0.47 0.23,2.51 1.09,4.57c1.31,3.15 3.52,4.81 6.4,4.81c1.84,0 3.42,-0.68 4.65,-2.01c0.05,0 0.09,-0.02 0.14,-0.04c0.04,-0.01 0.99,-0.46 2.03,-1.13c1.45,-0.95 2.32,-1.86 2.58,-2.71c0.15,-0.51 0.1,-1.02 -0.17,-1.46zm-9.23,6.35c-2.47,0 -4.31,-1.4 -5.47,-4.17c-0.43,-1.04 -0.69,-2.08 -0.84,-2.89c0.34,0.17 0.75,0.32 1.22,0.46c1.37,0.39 3.17,0.6 5.09,0.6s3.72,-0.21 5.09,-0.6c0.47,-0.14 0.88,-0.29 1.21,-0.46c-0.14,0.81 -0.4,1.85 -0.84,2.89c-1.16,2.77 -2.99,4.17 -5.46,4.17zm8.44,-5.19c-0.18,0.61 -0.95,1.37 -2.16,2.16c-0.12,0.08 -0.24,0.16 -0.36,0.23c0.17,-0.32 0.33,-0.65 0.48,-1.01c0.26,-0.63 0.46,-1.26 0.62,-1.84c0.3,-0.17 0.83,-0.41 1.16,-0.33c0.09,0.02 0.15,0.06 0.2,0.14c0.12,0.2 0.14,0.41 0.06,0.65z" fill="#EE4B2B" id="svg_1"/>
  <path d="m9.49,11c0.01,0 0.02,0 0.02,0c0.28,-0.01 0.5,-0.23 0.49,-0.51s-0.23,-0.5 -0.51,-0.49c-0.01,0 -0.69,0 -1.11,-0.43c-0.25,-0.24 -0.38,-0.6 -0.38,-1.07c0,-1.44 0.36,-2.1 0.74,-2.79c0.37,-0.68 0.76,-1.39 0.76,-2.71c0,-1.6 -0.53,-2.68 -0.55,-2.72c-0.13,-0.25 -0.43,-0.35 -0.68,-0.23s-0.34,0.43 -0.22,0.67c0,0.01 0.45,0.91 0.45,2.28c0,1.06 -0.3,1.6 -0.64,2.23c-0.4,0.74 -0.86,1.57 -0.86,3.27c0,0.75 0.23,1.35 0.68,1.79c0.69,0.68 1.67,0.71 1.81,0.71z" fill="#EE4B2B" id="svg_2"/>
 </g>
</svg>